<svg xmlns="http://www.w3.org/2000/svg" viewBox="0 0 56 56" width="56" height="56">
  <rect width="56" height="56" rx="12" fill="#37474F"/>
  <!-- Shelf unit -->
  <rect x="14" y="10" width="28" height="38" rx="2" fill="#546E7A" stroke="#78909C" stroke-width="1"/>
  <!-- Shelves -->
  <rect x="14" y="19" width="28" height="2" fill="#78909C"/>
  <rect x="14" y="29" width="28" height="2" fill="#78909C"/>
  <rect x="14" y="39" width="28" height="2" fill="#78909C"/>
  <!-- Items on shelf 1 — bottles -->
  <rect x="18" y="12" width="4" height="7" rx="1" fill="#4CAF50" opacity="0.8"/>
  <rect x="24" y="14" width="3" height="5" rx="1" fill="#81C784" opacity="0.7"/>
  <rect x="30" y="11" width="4" height="8" rx="1" fill="#A5D6A7" opacity="0.6"/>
  <!-- Items on shelf 2 — towels -->
  <rect x="17" y="22" width="10" height="6" rx="2" fill="#E0E0E0" opacity="0.7"/>
  <rect x="29" y="23" width="8" height="5" rx="2" fill="#EEEEEE" opacity="0.6"/>
  <!-- Items on shelf 3 — basket -->
  <rect x="19" y="32" width="8" height="6" rx="2" fill="#8D6E63" opacity="0.7"/>
  <rect x="30" y="33" width="6" height="5" rx="1" fill="#BCAAA4" opacity="0.6"/>
  <!-- Knobs -->
  <circle cx="22" cy="44" r="1.5" fill="#4CAF50"/>
  <circle cx="34" cy="44" r="1.5" fill="#4CAF50"/>
</svg>